<svg width="46" height="49" viewBox="0 0 46 49" fill="none" xmlns="http://www.w3.org/2000/svg">
<path d="M37.5483 40.4481C37.2399 42.7286 35.1413 44.3272 32.8609 44.0189L7.73828 40.6219C5.45784 40.3136 3.85916 38.2149 4.16751 35.9345L7.15705 13.8252C7.4654 11.5447 9.56403 9.94605 11.8445 10.2544L24.4058 11.9529L36.9671 13.6514C39.2475 13.9597 40.8462 16.0584 40.5378 18.3388L37.5483 40.4481Z" fill="#6CFFF8"/>
<path d="M26.3123 7.18632C26.4049 6.5022 25.9253 5.87256 25.2412 5.77997C24.5571 5.68738 23.9275 6.16691 23.8349 6.85102L26.3123 7.18632ZM5.40624 36.102L8.39578 13.9927L5.91832 13.6577L2.92878 35.767L5.40624 36.102ZM39.2991 18.1713L36.3096 40.2806L38.787 40.6156L41.7766 18.5063L39.2991 18.1713ZM33.0284 42.7802L7.90577 39.3832L7.57078 41.8606L32.6934 45.2576L33.0284 42.7802ZM25.6445 12.1205L26.3123 7.18632L23.8349 6.85102L23.1671 11.7852L25.6445 12.1205ZM11.677 11.4931L24.2383 13.1916L24.5733 10.7142L12.012 9.01567L11.677 11.4931ZM24.2383 13.1916L36.7996 14.8901L37.1346 12.4127L24.5733 10.7142L24.2383 13.1916ZM41.7766 18.5063C42.1774 15.5417 40.0991 12.8135 37.1346 12.4127L36.7996 14.8901C38.3959 15.106 39.5149 16.575 39.2991 18.1713L41.7766 18.5063ZM8.39578 13.9927C8.61162 12.3964 10.0807 11.2773 11.677 11.4931L12.012 9.01567C9.04739 8.61481 6.31918 10.6931 5.91832 13.6577L8.39578 13.9927ZM2.92878 35.767C2.52793 38.7316 4.60622 41.4598 7.57078 41.8606L7.90577 39.3832C6.30947 39.1673 5.19039 37.6983 5.40624 36.102L2.92878 35.767ZM36.3096 40.2806C36.0937 41.8769 34.6247 42.996 33.0284 42.7802L32.6934 45.2576C35.6579 45.6585 38.3862 43.5802 38.787 40.6156L36.3096 40.2806Z" fill="black"/>
<path d="M29.5609 28.8279C31.2892 29.0616 32.9529 27.3087 33.2769 24.9128C33.6009 22.5169 32.4624 20.3851 30.7341 20.1514C29.0057 19.9177 27.342 21.6706 27.018 24.0665C26.694 26.4624 27.8325 28.5942 29.5609 28.8279Z" fill="#477EFF"/>
<path d="M14.9561 26.853C16.6845 27.0867 18.3482 25.3339 18.6722 22.9379C18.9961 20.542 17.8577 18.4103 16.1293 18.1766C14.401 17.9429 12.7372 19.6957 12.4133 22.0916C12.0893 24.4876 13.2278 26.6193 14.9561 26.853Z" fill="#477EFF"/>
<path d="M38.8327 30.9672L34.3227 36.9837L29.6077 36.3461" stroke="black" stroke-width="2.5" stroke-linecap="round" stroke-linejoin="round"/>
<path d="M25.4341 35.7803C25.4341 35.7803 20.9814 37.9996 17.0889 34.6519" stroke="#477EFF" stroke-width="2.5" stroke-linecap="round" stroke-linejoin="round"/>
<path d="M3.38873 18.1359C3.51207 17.2238 4.35152 16.5843 5.2637 16.7076L6.13302 16.8252C7.0452 16.9485 7.68467 17.788 7.56133 18.7002L6.83479 24.0733C6.71145 24.9855 5.872 25.625 4.95983 25.5016L4.0905 25.3841C3.17833 25.2607 2.53885 24.4213 2.66219 23.5091L3.38873 18.1359Z" fill="black"/>
<path d="M38.855 22.9313C38.9784 22.0191 39.8178 21.3797 40.73 21.503L41.5993 21.6205C42.5115 21.7439 43.151 22.5833 43.0276 23.4955L42.3011 28.8687C42.1778 29.7808 41.3383 30.4203 40.4261 30.297L39.5568 30.1794C38.6446 30.0561 38.0052 29.2166 38.1285 28.3045L38.855 22.9313Z" fill="black"/>
<path d="M22.1103 5.38653C22.344 3.65818 23.9345 2.44653 25.6629 2.68023C27.3912 2.91393 28.6029 4.50449 28.3692 6.23283L28.3356 6.48126C28.1019 8.20961 26.5113 9.42126 24.783 9.18756C23.0547 8.95386 21.843 7.3633 22.0767 5.63496L22.1103 5.38653Z" fill="black"/>
<path d="M26.3407 42.4127C27.2537 42.5301 27.8986 43.3655 27.7811 44.2784L27.6691 45.1485C27.5517 46.0614 26.7164 46.7063 25.8034 46.5888L12.5266 44.8806C11.6136 44.7631 10.9687 43.9278 11.0862 43.0148L11.1981 42.1448C11.3156 41.2318 12.1509 40.587 13.0639 40.7044L26.3407 42.4127Z" fill="black"/>
</svg>
