<svg width="68" height="68" viewBox="0 0 68 68" fill="none" xmlns="http://www.w3.org/2000/svg">
<rect width="68" height="68" rx="34" fill="#FE6F6F"/>
<path opacity="0.5" d="M37.2 25.16H40.08V27.08H37.2C36.7757 27.08 36.3687 27.2486 36.0687 27.5487C35.7686 27.8487 35.6 28.2557 35.6 28.68V41.48C35.6 41.9044 35.7686 42.3113 36.0687 42.6114C36.3687 42.9115 36.7757 43.08 37.2 43.08H40.08V45H37.2C36.2665 45 35.3712 44.6292 34.711 43.969C34.0509 43.3089 33.68 42.4136 33.68 41.48V36.04H27.92V34.12H33.68V28.68C33.68 27.7465 34.0509 26.8511 34.711 26.191C35.3712 25.5309 36.2665 25.16 37.2 25.16Z" fill="white"/>
<path d="M50 26.12C50 27.4779 49.4606 28.7802 48.5004 29.7404C47.5402 30.7006 46.2379 31.24 44.88 31.24C43.5221 31.24 42.2198 30.7006 41.2596 29.7404C40.2994 28.7802 39.76 27.4779 39.76 26.12C39.76 24.7621 40.2994 23.4598 41.2596 22.4996C42.2198 21.5394 43.5221 21 44.88 21C46.2379 21 47.5402 21.5394 48.5004 22.4996C49.4606 23.4598 50 24.7621 50 26.12Z" fill="white"/>
<path d="M50 42.76C50 44.1179 49.4606 45.4202 48.5004 46.3804C47.5402 47.3406 46.2379 47.88 44.88 47.88C43.5221 47.88 42.2198 47.3406 41.2596 46.3804C40.2994 45.4202 39.76 44.1179 39.76 42.76C39.76 41.4021 40.2994 40.0998 41.2596 39.1396C42.2198 38.1794 43.5221 37.64 44.88 37.64C46.2379 37.64 47.5402 38.1794 48.5004 39.1396C49.4606 40.0998 50 41.4021 50 42.76Z" fill="white"/>
<path d="M26.7404 38.7003C27.7006 37.7402 28.24 36.4379 28.24 35.08C28.24 33.7221 27.7006 32.4198 26.7404 31.4596C25.7802 30.4994 24.4779 29.96 23.12 29.96C21.7621 29.96 20.4598 30.4994 19.4996 31.4596C18.5394 32.4198 18 33.7221 18 35.08C18 36.4379 18.5394 37.7402 19.4996 38.7003C20.4598 39.6605 21.7621 40.2 23.12 40.2C24.4779 40.2 25.7802 39.6605 26.7404 38.7003Z" fill="white"/>
</svg>
