<svg width="68" height="68" viewBox="0 0 68 68" fill="none" xmlns="http://www.w3.org/2000/svg">
<rect width="68" height="68" rx="34" fill="#38C7B6"/>
<path d="M29 26C29 24.6739 29.5268 23.4021 30.4645 22.4645C31.4021 21.5268 32.6739 21 34 21C35.3261 21 36.5979 21.5268 37.5355 22.4645C38.4732 23.4021 39 24.6739 39 26C39 27.3261 38.4732 28.5979 37.5355 29.5355C36.5979 30.4732 35.3261 31 34 31C32.6739 31 31.4021 30.4732 30.4645 29.5355C29.5268 28.5979 29 27.3261 29 26ZM31 33C30.2044 33 29.4413 33.3161 28.8787 33.8787C28.3161 34.4413 28 35.2044 28 36V41C28 42.5913 28.6321 44.1174 29.7574 45.2426C30.8826 46.3679 32.4087 47 34 47C35.5913 47 37.1174 46.3679 38.2426 45.2426C39.3679 44.1174 40 42.5913 40 41V36C40 35.2044 39.6839 34.4413 39.1213 33.8787C38.5587 33.3161 37.7956 33 37 33H31Z" fill="white"/>
<path opacity="0.4" d="M26.1121 34.94C26.0371 35.2883 25.9996 35.6437 26.0001 36V41C25.9999 42.0704 26.2145 43.13 26.6312 44.1159C27.048 45.1019 27.6583 45.9942 28.4261 46.74L28.2261 46.796C26.6895 47.2071 25.0525 46.9912 23.6749 46.1958C22.2974 45.4003 21.2921 44.0904 20.8801 42.554L20.1021 39.654C20.0002 39.2734 19.9742 38.8765 20.0257 38.4859C20.0772 38.0953 20.2051 37.7187 20.4022 37.3775C20.5992 37.0363 20.8615 36.7373 21.1742 36.4975C21.4868 36.2578 21.8435 36.0819 22.2241 35.98L26.1121 34.94ZM39.5721 46.74C40.3403 45.9944 40.951 45.1021 41.3681 44.1162C41.7851 43.1302 42.0001 42.0705 42.0001 41V36C41.9988 35.6347 41.9615 35.2813 41.8881 34.94L45.7741 35.98C46.1549 36.0819 46.5119 36.2578 46.8247 36.4977C47.1374 36.7376 47.3998 37.0369 47.5969 37.3782C47.794 37.7196 47.9218 38.0965 47.9732 38.4873C48.0245 38.8782 47.9983 39.2753 47.8961 39.656L47.1201 42.554C46.9117 43.3318 46.5489 44.0597 46.0532 44.6943C45.5576 45.3289 44.9393 45.8572 44.2351 46.2478C43.531 46.6384 42.7554 46.8833 41.9547 46.9678C41.1539 47.0524 40.3423 46.9749 39.5721 46.74ZM20.0001 29C20.0001 27.9391 20.4215 26.9217 21.1717 26.1716C21.9218 25.4214 22.9393 25 24.0001 25C25.061 25 26.0784 25.4214 26.8285 26.1716C27.5787 26.9217 28.0001 27.9391 28.0001 29C28.0001 30.0609 27.5787 31.0783 26.8285 31.8284C26.0784 32.5786 25.061 33 24.0001 33C22.9393 33 21.9218 32.5786 21.1717 31.8284C20.4215 31.0783 20.0001 30.0609 20.0001 29ZM40.0001 29C40.0001 27.9391 40.4215 26.9217 41.1717 26.1716C41.9218 25.4214 42.9393 25 44.0001 25C45.061 25 46.0784 25.4214 46.8285 26.1716C47.5787 26.9217 48.0001 27.9391 48.0001 29C48.0001 30.0609 47.5787 31.0783 46.8285 31.8284C46.0784 32.5786 45.061 33 44.0001 33C42.9393 33 41.9218 32.5786 41.1717 31.8284C40.4215 31.0783 40.0001 30.0609 40.0001 29Z" fill="white"/>
</svg>
