<svg width="68" height="68" viewBox="0 0 68 68" fill="none" xmlns="http://www.w3.org/2000/svg">
<rect width="68" height="68" rx="34" fill="#4EAAFF"/>
<g clip-path="url(#clip0_70_750)">
<path d="M39.3333 28.8333C39.3333 29.0543 39.2455 29.2663 39.0893 29.4226C38.933 29.5789 38.721 29.6667 38.5 29.6667C38.279 29.6667 38.067 29.5789 37.9107 29.4226C37.7545 29.2663 37.6667 29.0543 37.6667 28.8333C37.6667 28.6123 37.7545 28.4004 37.9107 28.2441C38.067 28.0878 38.279 28 38.5 28C38.721 28 38.933 28.0878 39.0893 28.2441C39.2455 28.4004 39.3333 28.6123 39.3333 28.8333ZM39.3333 31.3333V36.3333H41V38H37.6667V33H36V31.3333H39.3333Z" fill="white"/>
<path opacity="0.4" d="M45.71 46.294C45.5865 46.1424 45.4805 45.9774 45.394 45.802C45.1241 45.2402 44.9892 44.6232 45 44C45 43.172 45.206 42.574 45.394 42.198C45.4805 42.0226 45.5865 41.8576 45.71 41.706L45.716 41.696C45.8976 41.5098 45.9995 41.2601 46 41V19C46 18.7348 45.8946 18.4804 45.7071 18.2929C45.5196 18.1054 45.2652 18 45 18H24.922L24.756 18.01C23.99 18.0658 23.2417 18.2681 22.552 18.606C21.8421 18.9522 21.2353 19.4783 20.792 20.132C20.296 20.88 20 21.826 20 23V44C20 44.926 20.234 45.686 20.636 46.29C21.036 46.886 21.56 47.272 22.052 47.52C22.6374 47.8118 23.2783 47.9755 23.932 48H24V46L23.942 45.996C23.5956 45.9747 23.2569 45.8843 22.946 45.73C22.6851 45.6081 22.4619 45.4181 22.3 45.18C22.14 44.94 22 44.574 22 44C22 43.426 22.14 43.06 22.3 42.82C22.4625 42.5816 22.6864 42.3916 22.948 42.27C23.2757 42.1069 23.6342 42.0149 24 42H43.316C43.134 42.54 43 43.21 43 44C43 44.79 43.134 45.46 43.316 46H34V48H45C45.1965 48 45.3885 47.9421 45.5523 47.8336C45.7161 47.7251 45.8442 47.5708 45.9208 47.3899C45.9974 47.2089 46.019 47.0095 45.983 46.8164C45.9469 46.6233 45.8547 46.4451 45.718 46.304L45.71 46.294ZM23.448 20.394C23.6347 20.3033 23.8187 20.23 24 20.174C24 23.836 24.002 40 23.998 40H23.932C23.7421 40.0065 23.553 40.0266 23.366 40.06C22.9094 40.1332 22.4664 40.2747 22.052 40.48L22 40.508V23C22 22.174 22.204 21.622 22.458 21.242C22.714 20.856 23.066 20.586 23.448 20.394ZM26 40V20H44V40H26Z" fill="white"/>
<path d="M32 44H26V49C25.9996 49.198 26.0581 49.3917 26.168 49.5565C26.2778 49.7213 26.4341 49.8497 26.6171 49.9256C26.8 50.0014 27.0014 50.0212 27.1956 49.9825C27.3898 49.9437 27.5681 49.8482 27.708 49.708L29 48.414L30.292 49.708C30.4319 49.8482 30.6102 49.9437 30.8044 49.9825C30.9986 50.0212 31.2 50.0014 31.3829 49.9256C31.5659 49.8497 31.7222 49.7213 31.832 49.5565C31.9419 49.3917 32.0004 49.198 32 49V44Z" fill="white"/>
<rect x="28" y="22" width="7" height="2" fill="white"/>
<rect x="41" y="22" width="2" height="2" fill="white"/>
<rect x="28" y="26" width="7" height="2" fill="white"/>
<rect x="41" y="26" width="2" height="2" fill="white"/>
<rect x="28" y="30" width="3" height="2" fill="white"/>
</g>
<defs>
<clipPath id="clip0_70_750">
<rect width="32" height="32" fill="white" transform="translate(18 18)"/>
</clipPath>
</defs>
</svg>
