<svg width="42" height="44" viewBox="0 0 42 44" fill="none" xmlns="http://www.w3.org/2000/svg">
<ellipse cx="21.6341" cy="13.7528" rx="12.0332" ry="11.7528" fill="#6CFFF8"/>
<ellipse cx="11.4999" cy="18.7004" rx="9.49989" ry="9.27854" fill="#6CFFF8"/>
<ellipse cx="32.4007" cy="20.5576" rx="7.59991" ry="7.42283" fill="#6CFFF8"/>
<ellipse cx="20.9996" cy="21.7933" rx="12.6665" ry="12.3714" fill="#6CFFF8"/>
<path d="M10.8485 9.67829C5.96281 9.67829 2 13.4997 2 18.2119C2 20.5604 2.98547 22.6881 4.57943 24.2311C5.18252 24.8149 5.87271 25.3151 6.62959 25.7118M10.8485 9.67829C11.5949 6.32423 14.2549 3.58875 17.8295 2.50006C21.4042 1.40861 25.348 2.13166 28.1736 4.39702C31.0018 6.65689 32.2829 10.1154 31.5365 13.4695H33.4175C35.1591 13.4658 36.8308 14.1629 38.0651 15.4074C39.2994 16.652 39.9952 18.3421 39.9996 20.1061C39.9952 21.8702 39.2994 23.5603 38.0651 24.8048C37.408 25.4673 36.627 25.9747 35.7774 26.3038M10.8485 9.67829C11.7829 9.81762 13.6308 10.2815 15.2156 11.1711" stroke="#252C32" stroke-width="3.09285" stroke-linecap="round" stroke-linejoin="round"/>
<path d="M21.0042 29.6289L21.0042 33.7527" stroke="#252C32" stroke-width="3.09285" stroke-linecap="round" stroke-linejoin="round"/>
<path d="M21.0033 13.1328V21.6976M21.0033 21.6976L11.5034 26.5351M21.0033 21.6976L30.5032 26.5351" stroke="#477EFF" stroke-width="3.09285" stroke-linecap="round" stroke-linejoin="round"/>
<path d="M28.2431 25.147L21.0051 29.6293L13.7671 25.147V17.9751L21.0051 13.4928M28.2431 25.147V17.9751L21.0051 13.4928M28.2431 25.147L30.5032 26.5365M21.0051 13.4928V11.0723" stroke="#477EFF" stroke-width="3.09285" stroke-linecap="round" stroke-linejoin="round"/>
<path d="M16.781 37.8777C16.781 38.9714 17.2259 40.0203 18.0177 40.7937C18.8095 41.567 19.8834 42.0015 21.0032 42.0015C22.123 42.0015 23.1969 41.567 23.9887 40.7937C24.7805 40.0203 25.2254 38.9714 25.2254 37.8777M16.781 37.8777C16.781 36.784 17.2259 35.7351 18.0177 34.9617C18.8095 34.1884 19.8834 33.7539 21.0032 33.7539C22.123 33.7539 23.1969 34.1884 23.9887 34.9617C24.7805 35.7351 25.2254 36.784 25.2254 37.8777M16.781 37.8777H4.1145M25.2254 37.8777H37.8919" stroke="#252C32" stroke-width="3.09285" stroke-linecap="round" stroke-linejoin="round"/>
</svg>
