<svg width="42" height="42" viewBox="0 0 42 42" fill="none" xmlns="http://www.w3.org/2000/svg">
<path d="M11.0022 10.8801V7.79008C11.0022 6.48891 11.1648 5.14603 12.0956 4.06811C13.008 3.01139 14.4482 2.45245 16.3601 2.11872L11.0022 10.8801ZM11.0022 10.8801H9.00881C5.94811 10.8801 3.2233 12.7397 2.39395 16.1634C1.98398 17.8433 1.75491 19.2685 1.75008 20.7406C1.74525 22.2134 1.96496 23.6761 2.3941 25.4341C2.73567 26.8391 3.33903 28.1526 4.30533 29.1296C5.29923 30.1345 6.61477 30.7168 8.20281 30.7168H11.003V33.805C11.003 37.0282 13.8484 38.654 16.2285 39.3437C19.1718 40.1988 22.0377 40.3534 25.554 39.3449C26.7291 39.0089 28.0038 38.4754 29.0054 37.61C30.0429 36.7134 30.7837 35.4562 30.7837 33.805V30.7149H33.8572C35.46 30.7149 36.6722 30.1365 37.5772 29.0941C38.4107 28.1341 38.9261 26.8406 39.365 25.5358C40.3661 22.5682 40.296 19.7378 39.3929 16.1522C39.061 14.8316 38.5453 13.5251 37.6633 12.5347C36.7371 11.4947 35.4716 10.8783 33.8572 10.8783H30.8519L30.7826 10.8509V7.7888C30.7826 4.67335 28.1554 2.56949 25.4134 2.11552L25.4121 2.1153C23.8527 1.85887 22.2419 1.74332 20.6996 1.7503L19.0991 1.75754L19.1107 1.80295C18.1433 1.86155 17.217 1.96879 16.3607 2.11862L11.0022 10.8801ZM16.0307 6.86942C16.2266 6.86942 16.4028 7.03519 16.4028 7.25179C16.4028 7.45676 16.2347 7.6243 16.0307 7.6243C15.825 7.6243 15.6587 7.45854 15.6587 7.25179C15.6587 7.03373 15.8334 6.86942 16.0307 6.86942ZM25.7552 33.972C25.9609 33.972 26.1272 34.1378 26.1272 34.3445C26.1272 34.5626 25.9525 34.7269 25.7552 34.7269C25.5593 34.7269 25.3832 34.5611 25.3832 34.3445C25.3832 34.1395 25.5512 33.972 25.7552 33.972Z" fill="#6CFFF8" stroke="black" stroke-width="2.5"/>
<path fill-rule="evenodd" clip-rule="evenodd" d="M30.6407 15.839V11.9982L30.644 11.9995H33.9373C36.4928 11.9995 37.6969 13.8806 38.3274 16.3821C39.2048 19.8553 39.2437 22.4613 38.3274 25.1698C37.4402 27.7997 36.4882 29.5524 33.9373 29.5524H29.5473H20.7802V30.6508H29.5473V33.9466C29.5473 36.4401 27.367 37.7087 25.1572 38.3389C21.8344 39.2892 19.1686 39.1438 16.3902 38.3389C14.0688 37.6681 12.0001 36.2898 12.0001 33.9466V25.7135C12.0001 23.3459 13.9886 21.3213 16.3902 21.3213H25.1572C28.0787 21.3213 30.6407 18.8159 30.6407 15.839ZM27.3575 34.4929C27.3575 33.5845 26.6202 32.8502 25.7105 32.8502C24.804 32.8502 24.0635 33.5848 24.0635 34.4929C24.0635 35.4042 24.8036 36.1456 25.7105 36.1456C26.6202 36.1456 27.3575 35.4042 27.3575 34.4929Z" fill="#477EFF"/>
<path fill-rule="evenodd" clip-rule="evenodd" d="M17.6528 7.25004C17.6528 6.34992 16.9238 5.61766 16.0307 5.61766C15.1348 5.61766 14.4087 6.34992 14.4087 7.25004C14.4087 8.14729 15.1348 8.87254 16.0307 8.87254C16.9235 8.87254 17.6528 8.14697 17.6528 7.25004Z" fill="#6CFFF8"/>
</svg>
