<svg width="68" height="68" viewBox="0 0 68 68" fill="none" xmlns="http://www.w3.org/2000/svg">
<rect width="68" height="68" rx="34" fill="#A0C96F"/>
<path opacity="0.4" fill-rule="evenodd" clip-rule="evenodd" d="M22.4298 21.4286C22.1267 21.4286 21.836 21.549 21.6217 21.7633C21.4074 21.9776 21.287 22.2683 21.287 22.5714V45.4286C21.287 45.7317 21.4074 46.0224 21.6217 46.2367C21.836 46.451 22.1267 46.5714 22.4298 46.5714H34.4298C34.8845 46.5714 35.3205 46.752 35.642 47.0735C35.9635 47.395 36.1441 47.8311 36.1441 48.2857C36.1441 48.7404 35.9635 49.1764 35.642 49.4979C35.3205 49.8194 34.8845 50 34.4298 50H22.4298C21.2174 50 20.0546 49.5184 19.1973 48.6611C18.34 47.8037 17.8584 46.641 17.8584 45.4286V22.5714C17.8584 21.359 18.34 20.1962 19.1973 19.3389C20.0546 18.4816 21.2174 18 22.4298 18H45.287C46.4994 18 47.6621 18.4816 48.5195 19.3389C49.3768 20.1962 49.8584 21.359 49.8584 22.5714V36.8571C49.8584 37.3118 49.6778 37.7478 49.3563 38.0693C49.0348 38.3908 48.5988 38.5714 48.1441 38.5714C47.6895 38.5714 47.2534 38.3908 46.9319 38.0693C46.6104 37.7478 46.4298 37.3118 46.4298 36.8571V22.5714C46.4298 22.2683 46.3094 21.9776 46.0951 21.7633C45.8808 21.549 45.5901 21.4286 45.287 21.4286H22.4298Z" fill="white"/>
<path d="M50.9999 42.572C50.9999 42.1177 50.8195 41.682 50.4985 41.3606C50.1771 41.0396 49.7414 40.8593 49.2871 40.8593C48.8328 40.8593 48.3971 41.0396 48.0756 41.3606L43.5728 45.8635L42.4985 44.7892C42.3416 44.6207 42.1523 44.4857 41.942 44.392C41.7317 44.2983 41.5047 44.2479 41.2746 44.2438C41.0444 44.2398 40.8157 44.2821 40.6023 44.3683C40.3888 44.4545 40.1949 44.5829 40.0321 44.7457C39.8693 44.9084 39.741 45.1023 39.6548 45.3158C39.5686 45.5293 39.5262 45.7579 39.5303 45.9881C39.5344 46.2183 39.5847 46.4453 39.6784 46.6555C39.7721 46.8658 39.9072 47.0551 40.0756 47.212L42.3614 49.4977C42.6828 49.8188 43.1185 49.9991 43.5728 49.9991C44.0271 49.9991 44.4628 49.8188 44.7842 49.4977L50.4985 43.7835C50.8195 43.462 50.9999 43.0263 50.9999 42.572Z" fill="white"/>
<path d="M25.2177 40.2163C25.5392 39.8948 25.9752 39.7142 26.4299 39.7142H34.4299C34.8845 39.7142 35.3206 39.8948 35.642 40.2163C35.9635 40.5378 36.1441 40.9739 36.1441 41.4285C36.1441 41.8832 35.9635 42.3192 35.642 42.6407C35.3206 42.9622 34.8845 43.1428 34.4299 43.1428H26.4299C25.9752 43.1428 25.5392 42.9622 25.2177 42.6407C24.8962 42.3192 24.7156 41.8832 24.7156 41.4285C24.7156 40.9739 24.8962 40.5378 25.2177 40.2163Z" fill="white"/>
<path d="M25.2177 25.3593C25.5392 25.0378 25.9752 24.8572 26.4299 24.8572H41.287C41.7417 24.8572 42.1777 25.0378 42.4992 25.3593C42.8207 25.6808 43.0013 26.1168 43.0013 26.5715C43.0013 27.0261 42.8207 27.4622 42.4992 27.7836C42.1777 28.1051 41.7417 28.2857 41.287 28.2857H26.4299C25.9752 28.2857 25.5392 28.1051 25.2177 27.7836C24.8962 27.4622 24.7156 27.0261 24.7156 26.5715C24.7156 26.1168 24.8962 25.6808 25.2177 25.3593Z" fill="white"/>
<path d="M25.2177 32.7879C24.8962 33.1093 24.7156 33.5454 24.7156 34C24.7156 34.4547 24.8962 34.8907 25.2177 35.2122C25.5392 35.5337 25.9752 35.7143 26.4299 35.7143H41.287C41.7417 35.7143 42.1777 35.5337 42.4992 35.2122C42.8207 34.8907 43.0013 34.4547 43.0013 34C43.0013 33.5454 42.8207 33.1093 42.4992 32.7879C42.1777 32.4664 41.7417 32.2857 41.287 32.2857H26.4299C25.9752 32.2857 25.5392 32.4664 25.2177 32.7879Z" fill="white"/>
</svg>
