<svg width="68" height="68" viewBox="0 0 68 68" fill="none" xmlns="http://www.w3.org/2000/svg">
<rect width="68" height="68" rx="34" fill="#FFAA5C"/>
<path fill-rule="evenodd" clip-rule="evenodd" d="M42.2241 38.7944C42.6569 38.3617 43.3586 38.3617 43.7913 38.7944L47.9409 42.944C48.1487 43.1518 48.2655 43.4337 48.2655 43.7276C48.2655 44.0215 48.1487 44.3034 47.9409 44.5112L43.7913 48.6608C43.3586 49.0936 42.6569 49.0936 42.2241 48.6608C41.7913 48.228 41.7913 47.5263 42.2241 47.0935L44.4817 44.8358H32.6328C32.0207 44.8358 31.5245 44.3397 31.5245 43.7276C31.5245 43.1156 32.0207 42.6194 32.6328 42.6194H44.4817L42.2241 40.3617C41.7913 39.9289 41.7913 39.2272 42.2241 38.7944Z" fill="white"/>
<path d="M24.0013 25.6755C23.2679 24.9422 22.856 23.9475 22.856 22.9104C22.856 21.8733 23.2679 20.8787 24.0013 20.1453C24.7346 19.412 25.7293 19 26.7664 19C27.8035 19 28.7981 19.412 29.5315 20.1453C30.2648 20.8787 30.6768 21.8733 30.6768 22.9104C30.6768 23.9475 30.2648 24.9422 29.5315 25.6755C28.7981 26.4089 27.8035 26.8209 26.7664 26.8209C25.7293 26.8209 24.7346 26.4089 24.0013 25.6755Z" fill="white"/>
<path opacity="0.5" fill-rule="evenodd" clip-rule="evenodd" d="M24.0341 30.6365H32.866V33.5456H24.064C22.9558 33.571 21.9011 34.0281 21.1249 34.8199C20.3455 35.6148 19.909 36.6837 19.909 37.7969C19.909 38.9102 20.3455 39.979 21.1249 40.774C21.9011 41.5657 22.9558 42.0228 24.064 42.0482H26.6406V44.9574H24.0341L24.0197 44.9571C22.1453 44.92 20.3601 44.1493 19.0476 42.8106C17.7351 41.4718 16.9999 39.6717 16.9999 37.7969C16.9999 35.9221 17.7351 34.122 19.0476 32.7833C20.3601 31.4445 22.1453 30.6739 24.0197 30.6368L24.0341 30.6365Z" fill="white"/>
<path d="M32.7996 34.8574C32.0663 34.1241 31.6543 33.1294 31.6543 32.0923C31.6543 31.0552 32.0663 30.0606 32.7996 29.3272C33.533 28.5939 34.5276 28.1819 35.5647 28.1819C36.6018 28.1819 37.5965 28.5939 38.3298 29.3272C39.0632 30.0606 39.4752 31.0552 39.4752 32.0923C39.4752 33.1294 39.0632 34.1241 38.3298 34.8574C37.5965 35.5908 36.6018 36.0028 35.5647 36.0028C34.5276 36.0028 33.533 35.5908 32.7996 34.8574Z" fill="white"/>
<path d="M26.9843 46.3498C26.251 45.6165 25.839 44.6219 25.839 43.5848C25.839 42.5476 26.251 41.553 26.9843 40.8197C27.7177 40.0863 28.7123 39.6743 29.7494 39.6743C30.7865 39.6743 31.7812 40.0863 32.5145 40.8197C33.2479 41.553 33.6599 42.5476 33.6599 43.5848C33.6599 44.6219 33.2479 45.6165 32.5145 46.3498C31.7812 47.0832 30.7865 47.4952 29.7494 47.4952C28.7123 47.4952 27.7177 47.0832 26.9843 46.3498Z" fill="white"/>
<g opacity="0.5">
<mask id="path-7-inside-1_70_833" fill="white">
<path d="M38.2461 33.595L43.4479 33.595C44.9204 33.595 46.3325 32.977 47.3737 31.8769C48.4149 30.7769 48.9998 29.285 48.9998 27.7293C48.9998 26.1736 48.4149 24.6817 47.3737 23.5817C46.3325 22.4816 44.9204 21.8636 43.4479 21.8636H24.5596"/>
</mask>
<path d="M43.4479 33.595V30.595V33.595ZM38.2461 36.595L43.4479 36.595V30.595L38.2461 30.595L38.2461 36.595ZM43.4479 36.595C45.7709 36.595 47.963 35.6185 49.5525 33.9392L45.1949 29.8147C44.702 30.3355 44.0698 30.595 43.4479 30.595V36.595ZM49.5525 33.9392C51.1366 32.2655 51.9998 30.029 51.9998 27.7293H45.9998C45.9998 28.5409 45.6931 29.2883 45.1949 29.8147L49.5525 33.9392ZM51.9998 27.7293C51.9998 25.4296 51.1366 23.1931 49.5525 21.5194L45.1949 25.6439C45.6931 26.1703 45.9998 26.9177 45.9998 27.7293H51.9998ZM49.5525 21.5194C47.963 19.8401 45.7709 18.8636 43.4479 18.8636V24.8636C44.0698 24.8636 44.702 25.1231 45.1949 25.6439L49.5525 21.5194ZM43.4479 18.8636H24.5596V24.8636H43.4479V18.8636Z" fill="white" mask="url(#path-7-inside-1_70_833)"/>
</g>
</svg>
