<svg width="68" height="68" viewBox="0 0 68 68" fill="none" xmlns="http://www.w3.org/2000/svg">
<rect width="68" height="68" rx="34" fill="#5066DD"/>
<path opacity="0.4" d="M46.2791 23.2295L35.0799 18.2291C34.738 18.0775 34.3724 18 34.0036 18C33.6338 18 33.2682 18.0775 32.9273 18.2291L21.7271 23.2295C21.2158 23.4575 20.7788 23.8415 20.471 24.3351C20.1642 24.8277 20 25.4076 20 26.0008C20 38.4077 26.679 46.9818 32.9211 49.7698C33.262 49.9214 33.6276 50 33.9974 50C34.3672 50 34.7329 49.9214 35.0737 49.7698C40.0732 47.5374 48 39.831 48 26.0008C48.001 25.4087 47.8378 24.8288 47.531 24.3362C47.2253 23.8426 46.7894 23.4575 46.2791 23.2295Z" fill="white"/>
<path d="M42.7569 29.5529L33.2945 38.9763C33.1397 39.1296 32.9312 39.2148 32.7135 39.2148C32.4959 39.2148 32.2874 39.1296 32.1326 38.9763L26.7844 33.6502C26.6305 33.496 26.5449 33.2883 26.5449 33.0716C26.5449 32.8548 26.6305 32.6463 26.7844 32.4921L27.9464 31.3349C28.1012 31.1826 28.3097 31.0973 28.5274 31.0973C28.745 31.0973 28.9536 31.1826 29.1084 31.3349L32.7135 34.9253L40.4329 27.2376C40.5877 27.0852 40.7963 27 41.0139 27C41.2316 27 41.4401 27.0852 41.5949 27.2376L42.7569 28.3948C42.8343 28.471 42.8953 28.5607 42.9372 28.6605C42.9782 28.7594 43 28.8664 43 28.9743C43 29.0822 42.9782 29.1883 42.9372 29.2881C42.8953 29.3869 42.8343 29.4776 42.7569 29.5529Z" fill="white"/>
</svg>
