<svg width="68" height="68" viewBox="0 0 68 68" fill="none" xmlns="http://www.w3.org/2000/svg">
<rect width="68" height="68" rx="34" fill="#FFAA5C"/>
<path d="M27.8863 33.7811C27.3862 33.281 26.7079 33 26.0007 33C25.2934 33 24.6151 33.281 24.115 33.7811C23.6149 34.2812 23.334 34.9595 23.334 35.6668C23.334 36.374 23.6149 37.0523 24.115 37.5524C24.6151 38.0526 25.2934 38.3335 26.0007 38.3335C26.7079 38.3335 27.3862 38.0526 27.8863 37.5524C28.3864 37.0523 28.6673 36.374 28.6673 35.6668C28.6673 34.9595 28.3864 34.2812 27.8863 33.7811Z" fill="white"/>
<path d="M35.8863 33.7811C35.3862 33.281 34.7079 33 34.0007 33C33.2934 33 32.6151 33.281 32.115 33.7811C31.6149 34.2812 31.334 34.9595 31.334 35.6668C31.334 36.374 31.6149 37.0523 32.115 37.5524C32.6151 38.0526 33.2934 38.3335 34.0007 38.3335C34.7079 38.3335 35.3862 38.0526 35.8863 37.5524C36.3864 37.0523 36.6673 36.374 36.6673 35.6668C36.6673 34.9595 36.3864 34.2812 35.8863 33.7811Z" fill="white"/>
<path d="M43.8863 33.7811C43.3862 33.281 42.7079 33 42.0007 33C41.2934 33 40.6151 33.281 40.115 33.7811C39.6149 34.2812 39.334 34.9595 39.334 35.6668C39.334 36.374 39.6149 37.0523 40.115 37.5524C40.6151 38.0526 41.2934 38.3335 42.0007 38.3335C42.7079 38.3335 43.3862 38.0526 43.8863 37.5524C44.3864 37.0523 44.6673 36.374 44.6673 35.6668C44.6673 34.9595 44.3864 34.2812 43.8863 33.7811Z" fill="white"/>
<path opacity="0.4" fill-rule="evenodd" clip-rule="evenodd" d="M21.5862 21C19.6091 21 18 22.6093 18 24.5863V26.1544V26.1553V43.4137C18 45.3907 19.6091 47 21.5862 47H46.6898C48.6669 47 50.276 45.3907 50.276 43.4137V27.7235C50.276 25.7465 48.6669 24.1372 46.6898 24.1372H34.9727L32.4265 21.5909C32.0482 21.2125 31.5351 21 31.0001 21H21.5862ZM22.0345 28.1726H34.138C34.1579 28.1726 34.1778 28.1723 34.1976 28.1717H46.2415V42.9655H22.0345V28.1726Z" fill="white"/>
</svg>
