<svg width="24" height="24" viewBox="0 0 24 24" fill="none" xmlns="http://www.w3.org/2000/svg">
<path d="M4.47461 6.10385L10.6904 1.99908C10.6904 4.12804 12.5674 4.0929 14.5 3.88078M4.47461 6.10385V17.0177C4.85557 17.7703 6.15085 19.0499 8.28425 18.1467M4.47461 6.10385C5.38892 7.91027 7.39533 8.11098 8.28425 7.98554M8.28425 18.1467C8.28425 16.0392 8.28425 10.4945 8.28425 7.98554M8.28425 18.1467L10.5 16.7617M8.28425 7.98554L14.5 3.88078M14.5 3.88078V5.76247" stroke="currentColor" stroke-width="1.5" stroke-linecap="round" stroke-linejoin="round"/>
<path d="M10.6914 8.88003L16.6659 4.97656V6.10558C17.4279 6.60736 19.2565 7.38513 20.4755 6.48192M10.6914 8.88003V19.7938C11.0724 20.5465 12.3676 21.8261 14.501 20.9228M10.6914 8.88003C11.6057 10.6865 13.6121 10.8872 14.501 10.7617M14.501 20.9228C14.501 18.8154 14.501 13.2706 14.501 10.7617M14.501 20.9228L20.4755 16.2667V6.48192M14.501 10.7617L20.4755 6.48192" stroke="currentColor" stroke-width="1.5" stroke-linecap="round" stroke-linejoin="round"/>
</svg>
