<svg width="24" height="24" viewBox="0 0 24 24" fill="none" xmlns="http://www.w3.org/2000/svg">
<path d="M12.7495 4.10538C12.7495 3.69117 12.4138 3.35534 11.9996 3.35529C11.5854 3.35523 11.2495 3.69098 11.2495 4.10519L12.7495 4.10538ZM4.32812 18.7367V8.99982H2.82812V18.7367H4.32812ZM19.6702 8.99982V18.7367H21.1702V8.99982H19.6702ZM17.9202 20.4867H6.07812V21.9867H17.9202V20.4867ZM12.7492 6.49991L12.7495 4.10538L11.2495 4.10519L11.2492 6.49972L12.7492 6.49991ZM6.07812 7.24982H11.9992V5.74982H6.07812V7.24982ZM11.9992 7.24982H17.9202V5.74982H11.9992V7.24982ZM21.1702 8.99982C21.1702 7.20489 19.7152 5.74982 17.9202 5.74982V7.24982C18.8867 7.24982 19.6702 8.03332 19.6702 8.99982H21.1702ZM4.32812 8.99982C4.32812 8.03332 5.11163 7.24982 6.07812 7.24982V5.74982C4.2832 5.74982 2.82812 7.20489 2.82812 8.99982H4.32812ZM2.82812 18.7367C2.82812 20.5316 4.2832 21.9867 6.07812 21.9867V20.4867C5.11163 20.4867 4.32812 19.7032 4.32812 18.7367H2.82812ZM19.6702 18.7367C19.6702 19.7032 18.8867 20.4867 17.9202 20.4867V21.9867C19.7152 21.9867 21.1702 20.5316 21.1702 18.7367H19.6702Z" fill="currentColor"/>
<path d="M15.6844 14.2097C16.5564 14.2097 17.2634 13.2672 17.2634 12.1045C17.2634 10.9418 16.5564 9.99921 15.6844 9.99921C14.8124 9.99921 14.1055 10.9418 14.1055 12.1045C14.1055 13.2672 14.8124 14.2097 15.6844 14.2097Z" fill="currentColor"/>
<path d="M8.31528 14.2097C9.1873 14.2097 9.89422 13.2672 9.89422 12.1045C9.89422 10.9418 9.1873 9.99921 8.31528 9.99921C7.44325 9.99921 6.73633 10.9418 6.73633 12.1045C6.73633 13.2672 7.44325 14.2097 8.31528 14.2097Z" fill="currentColor"/>
<path d="M20.4215 14.6316L18.5899 17.7895H16.2109" stroke="currentColor" stroke-width="1.5" stroke-linecap="round" stroke-linejoin="round"/>
<path d="M14.1051 17.7895H9.89453" stroke="currentColor" stroke-width="1.5" stroke-linecap="round" stroke-linejoin="round"/>
<path d="M2 10.9991C2 10.4468 2.44772 9.99908 3 9.99908H3.10526C3.65755 9.99908 4.10526 10.4468 4.10526 10.9991V13.2096C4.10526 13.7619 3.65755 14.2096 3.10526 14.2096H3C2.44772 14.2096 2 13.7619 2 13.2096V10.9991Z" fill="currentColor"/>
<path d="M19.8945 10.9991C19.8945 10.4468 20.3422 9.99908 20.8945 9.99908H20.9998C21.5521 9.99908 21.9998 10.4468 21.9998 10.9991V13.2096C21.9998 13.7619 21.5521 14.2096 20.9998 14.2096H20.8945C20.3422 14.2096 19.8945 13.7619 19.8945 13.2096V10.9991Z" fill="currentColor"/>
<path d="M10.4219 3.57895C10.4219 2.70692 11.1288 2 12.0008 2C12.8729 2 13.5798 2.70692 13.5798 3.57895C13.5798 4.45098 12.8729 5.15789 12.0008 5.15789C11.1288 5.15789 10.4219 4.45098 10.4219 3.57895Z" fill="currentColor"/>
</svg>
