<svg width="24" height="24" viewBox="0 0 24 24" fill="none" xmlns="http://www.w3.org/2000/svg">
<path d="M7.19143 7.7239C4.87714 7.7239 3 9.57725 3 11.8626C3 13.0016 3.46681 14.0335 4.22185 14.7819C4.50753 15.065 4.83446 15.3076 5.19299 15.5M7.19143 7.7239C7.545 6.09721 8.805 4.77053 10.4983 4.24252C12.1916 3.71318 14.0597 4.06385 15.3981 5.16253C16.7379 6.25855 17.3447 7.9359 16.9911 9.56258H17.8821C18.7071 9.56081 19.499 9.89889 20.0837 10.5025C20.6684 11.1061 20.998 11.9257 21 12.7813C20.998 13.6368 20.6684 14.4565 20.0837 15.0601C19.7724 15.3814 19.4024 15.6275 19 15.7871M7.19143 7.7239C7.63404 7.79147 8.50941 8.01645 9.26011 8.44788" stroke="currentColor" stroke-width="1.5" stroke-linecap="round" stroke-linejoin="round"/>
<path d="M12 17L12 19" stroke="currentColor" stroke-width="1.5" stroke-linecap="round" stroke-linejoin="round"/>
<path d="M12 9V13.1538M12 13.1538L7.5 15.5M12 13.1538L16.5 15.5" stroke="currentColor" stroke-width="1.5" stroke-linecap="round" stroke-linejoin="round"/>
<path d="M15.4294 14.8261L12.0008 17L8.57227 14.8261V11.3478L12.0008 9.17391M15.4294 14.8261V11.3478L12.0008 9.17391M15.4294 14.8261L16.5 15.5M12.0008 9.17391V8" stroke="currentColor" stroke-width="1.5" stroke-linecap="round" stroke-linejoin="round"/>
<path d="M10 21C10 21.5304 10.2107 22.0391 10.5858 22.4142C10.9609 22.7893 11.4696 23 12 23C12.5304 23 13.0391 22.7893 13.4142 22.4142C13.7893 22.0391 14 21.5304 14 21M10 21C10 20.4696 10.2107 19.9609 10.5858 19.5858C10.9609 19.2107 11.4696 19 12 19C12.5304 19 13.0391 19.2107 13.4142 19.5858C13.7893 19.9609 14 20.4696 14 21M10 21H4M14 21H20" stroke="currentColor" stroke-width="1.5" stroke-linecap="round" stroke-linejoin="round"/>
</svg>
