<svg width="90" height="30" viewBox="0 0 90 30" fill="none" xmlns="http://www.w3.org/2000/svg">
<path fill-rule="evenodd" clip-rule="evenodd" d="M21.1861 7.56325C23.2924 7.56325 25 5.87017 25 3.78163C25 1.69309 23.2924 0 21.1861 0C19.0798 0 17.3723 1.69309 17.3723 3.78163C17.3723 5.87017 19.0798 7.56325 21.1861 7.56325ZM3.43959 18.8256C5.00046 18.1224 6.23719 18.0549 8.81971 18.7115C8.98852 18.7544 9.14398 18.7936 9.28796 18.829C9.74378 18.9931 10.2357 19.0826 10.7487 19.0826C11.9354 19.0826 13.0107 18.6033 13.7869 17.8294C13.8919 17.7247 13.9914 17.6147 14.0849 17.4997C14.6983 16.8203 15.0266 15.7394 15.0311 14.8421C15.0311 12.5001 13.1106 10.6015 10.7487 10.6015C10.0547 10.6015 9.14849 10.8889 8.56891 11.1798C7.70482 11.5065 6.83295 11.7942 6.01401 11.7983C2.74909 11.8141 0.100479 9.42909 0.121151 5.94867C0.121151 2.72462 2.77179 0.110259 6.02328 0.110259C9.27481 0.110259 11.8552 3.02097 11.8552 6.24506C12.037 7.69051 12.3229 8.4735 12.8485 9.04132C13.5255 9.87462 14.4985 10.4615 15.6091 10.6451C16.0391 10.7585 16.4995 10.7309 17.4001 10.5465C17.5221 10.5215 17.6576 10.4682 17.7918 10.4154L17.793 10.415L17.7933 10.4149C17.9364 10.3585 18.0778 10.3029 18.1995 10.2828C18.7408 10.0795 19.3276 9.96821 19.9408 9.96821C22.6555 9.96821 24.8562 12.1503 24.8562 14.8421C24.8562 17.5339 22.6555 19.716 19.9408 19.716C19.7196 19.716 19.5019 19.7015 19.2884 19.6734C18.7115 19.6064 17.964 19.5007 17.2592 19.3052C17.1453 19.2736 17.0063 19.2226 16.8509 19.1656C16.4533 19.0199 15.9487 18.8349 15.4838 18.8349C13.5207 18.8349 11.9292 20.4129 11.9292 22.3594C11.9231 22.4354 11.9296 22.6598 11.9362 22.8888C11.943 23.1246 11.95 23.3652 11.9435 23.4536C11.7792 25.7161 11.5997 26.4125 10.9189 27.4327C8.66045 30.8167 3.2485 30.8647 1.01718 27.5211C-1.02083 24.4673 0.113372 20.3238 3.43959 18.8256Z" fill="white"/>
<path fill-rule="evenodd" clip-rule="evenodd" d="M32 0V19.6156H36.4808V14.1513H40.3807C40.4513 14.1513 40.5216 14.1508 40.5914 14.1499L44.3083 19.6156H49.1487L44.8236 13.3275L44.8615 13.3106C46.1154 12.7502 47.0835 11.9469 47.7657 10.9007C48.448 9.83586 48.7891 8.57483 48.7891 7.11767C48.7891 5.64186 48.448 4.37148 47.7657 3.30663C47.0835 2.24179 46.1154 1.42914 44.8615 0.868692C43.6076 0.289567 42.114 0 40.3807 0H32ZM36.4808 10.5364H40.1318C41.5147 10.5364 42.5474 10.2375 43.2296 9.63968C43.9119 9.02319 44.253 8.18252 44.253 7.11767C44.253 6.03417 43.9119 5.19346 43.2296 4.59566C42.5474 3.99786 41.5147 3.69895 40.1318 3.69895H36.4808V10.5364ZM52.3382 0V19.6156H56.8193V14.2073H60.719C62.4527 14.2073 63.9462 13.9271 65.2001 13.3667C66.4535 12.7875 67.4216 11.9656 68.1046 10.9007C68.7866 9.83586 69.1278 8.57483 69.1278 7.11767C69.1278 5.64186 68.7866 4.37148 68.1046 3.30663C67.4216 2.24179 66.4535 1.42914 65.2001 0.868692C63.9462 0.289567 62.4527 0 60.719 0H52.3382ZM56.8193 10.5084H60.4703C61.8533 10.5084 62.8855 10.2095 63.5684 9.61168C64.2504 9.01384 64.5916 8.18252 64.5916 7.11767C64.5916 6.03417 64.2504 5.19346 63.5684 4.59566C62.8855 3.99786 61.8533 3.69895 60.4703 3.69895H56.8193V10.5084ZM68.1039 19.6156L76.7334 0H81.159L89.8165 19.6156H85.1142L83.3957 15.4123H74.4209L72.6956 19.6156H68.1039ZM78.9172 4.45843L81.9865 11.9656H75.8357L78.9172 4.45843ZM34.0597 27.7296C34.4198 27.9323 34.8166 28.0337 35.2502 28.0337C35.7771 28.0337 36.2406 27.9188 36.6408 27.6891C37.0476 27.4593 37.3678 27.1383 37.6012 26.7261C37.8413 26.3072 37.9614 25.8173 37.9614 25.2565C37.9614 24.6956 37.8413 24.2091 37.6012 23.7969C37.3678 23.3847 37.0476 23.0637 36.6408 22.834C36.2406 22.6043 35.7771 22.4894 35.2502 22.4894C34.7966 22.4894 34.3932 22.5908 34.0397 22.7935C33.8261 22.9118 33.6394 23.0684 33.4794 23.2632V22.5502H32.2889V29.929H33.5395V27.3025C33.6916 27.4756 33.865 27.618 34.0597 27.7296ZM35.9105 26.7464C35.677 26.8816 35.4102 26.9491 35.1101 26.9491C34.81 26.9491 34.5399 26.8816 34.2998 26.7464C34.0597 26.6112 33.8696 26.4153 33.7295 26.1585C33.5895 25.9017 33.5194 25.6011 33.5194 25.2565C33.5194 24.9051 33.5895 24.6044 33.7295 24.3544C33.8696 24.0976 34.0597 23.9017 34.2998 23.7665C34.5399 23.6313 34.81 23.5638 35.1101 23.5638C35.4102 23.5638 35.677 23.6313 35.9105 23.7665C36.1506 23.9017 36.3407 24.0976 36.4807 24.3544C36.6208 24.6044 36.6908 24.9051 36.6908 25.2565C36.6908 25.6011 36.6208 25.9017 36.4807 26.1585C36.3407 26.4153 36.1506 26.6112 35.9105 26.7464ZM43.1126 29.8682C43.3727 29.956 43.6329 30 43.893 30C44.1931 30 44.4665 29.9527 44.7133 29.8581C44.9668 29.7635 45.1936 29.598 45.3937 29.3614C45.6004 29.1249 45.7871 28.804 45.9539 28.3986L48.455 22.5502H47.2545L45.5632 26.554L43.883 22.5502H42.5824L44.9179 27.9796L44.8234 28.1958C44.7033 28.4661 44.5733 28.6586 44.4332 28.7736C44.2932 28.8885 44.1097 28.9459 43.883 28.9459C43.7162 28.9459 43.5528 28.9121 43.3928 28.8445C43.2327 28.7769 43.0893 28.6857 42.9626 28.5708L42.4623 29.5033C42.6357 29.6588 42.8525 29.7804 43.1126 29.8682ZM54.4854 27.5775C54.8053 27.8816 55.259 28.0337 55.846 28.0337C56.0729 28.0337 56.2926 28.0032 56.5062 27.9424C56.7198 27.8816 56.8996 27.7904 57.0463 27.6688L56.6965 26.7667C56.5095 26.9153 56.276 26.9897 55.996 26.9897C55.7625 26.9897 55.5793 26.9187 55.446 26.7768C55.3193 26.6349 55.2557 26.4356 55.2557 26.1788V23.6043H56.6861V22.5908H55.2557V21.3542H54.0051V22.5908H53.1247V23.6043H54.0051V26.2092C54.0051 26.8106 54.165 27.2667 54.4854 27.5775ZM66.6985 22.7428C66.3654 22.5739 65.9852 22.4894 65.5586 22.4894C65.0916 22.4894 64.6782 22.584 64.3175 22.7732C64.1083 22.8813 63.9283 23.0178 63.7774 23.1828V20.442H62.5269V27.9627H63.7774V25.226C63.7774 24.8612 63.8372 24.5605 63.9573 24.324C64.0845 24.0807 64.261 23.8983 64.4884 23.7767C64.7147 23.655 64.9748 23.5942 65.2681 23.5942C65.6682 23.5942 65.9786 23.7124 66.1993 23.9489C66.4256 24.1855 66.5386 24.5435 66.5386 25.0233V27.9627H67.7896V24.8612C67.7896 24.3138 67.6928 23.8679 67.4996 23.5232C67.306 23.1719 67.0388 22.9117 66.6985 22.7428ZM74.778 27.6789C75.2046 27.9154 75.6916 28.0337 76.2388 28.0337C76.7921 28.0337 77.2819 27.9154 77.7095 27.6789C78.1423 27.4356 78.4798 27.1046 78.7199 26.6856C78.9662 26.2666 79.0901 25.7903 79.0901 25.2565C79.0901 24.7091 78.9662 24.2294 78.7199 23.8172C78.4798 23.405 78.1423 23.0807 77.7095 22.8442C77.2819 22.6076 76.7921 22.4894 76.2388 22.4894C75.6916 22.4894 75.2046 22.6076 74.778 22.8442C74.3508 23.0807 74.0143 23.4083 73.7676 23.8273C73.5203 24.2395 73.3974 24.7159 73.3974 25.2565C73.3974 25.7903 73.5203 26.2666 73.7676 26.6856C74.0143 27.1046 74.3508 27.4356 74.778 27.6789ZM77.0593 26.7464C76.8192 26.8816 76.5453 26.9491 76.2388 26.9491C75.9388 26.9491 75.6683 26.8816 75.4282 26.7464C75.1947 26.6112 75.0081 26.4153 74.8681 26.1585C74.7281 25.9017 74.6579 25.6011 74.6579 25.2565C74.6579 24.9051 74.7281 24.6044 74.8681 24.3544C75.0081 24.0976 75.1947 23.9017 75.4282 23.7665C75.6683 23.6313 75.9417 23.5638 76.2487 23.5638C76.5487 23.5638 76.8192 23.6313 77.0593 23.7665C77.299 23.9017 77.486 24.0976 77.6193 24.3544C77.7594 24.6044 77.8296 24.9051 77.8296 25.2565C77.8296 25.6011 77.7594 25.9017 77.6193 26.1585C77.486 26.4153 77.299 26.6112 77.0593 26.7464ZM88.9094 22.7428C88.5758 22.5739 88.1956 22.4894 87.769 22.4894C87.302 22.4894 86.8886 22.584 86.5284 22.7732C86.2906 22.8959 86.0907 23.0552 85.9285 23.2511V22.5502H84.7377V27.9627H85.9883V25.226C85.9883 24.8612 86.0486 24.5605 86.1682 24.324C86.2949 24.0807 86.4714 23.8983 86.6987 23.7767C86.9251 23.655 87.1852 23.5942 87.479 23.5942C87.8791 23.5942 88.1894 23.7124 88.4092 23.9489C88.636 24.1855 88.7495 24.5435 88.7495 25.0233V27.9627H90V24.8612C90 24.3138 89.9032 23.8679 89.71 23.5232C89.5164 23.1719 89.2497 22.9117 88.9094 22.7428Z" fill="white"/>
<path d="M24.2484 25.7889C24.2484 27.8814 22.5671 29.5777 20.4933 29.5777C18.4195 29.5777 16.7383 27.8814 16.7383 25.7889C16.7383 23.6965 18.4195 22.0002 20.4933 22.0002C22.5671 22.0002 24.2484 23.6965 24.2484 25.7889Z" fill="#F8B833"/>
</svg>
