<svg width="20" height="20" viewBox="0 0 20 20" fill="none" xmlns="http://www.w3.org/2000/svg">
<path d="M10.0112 2.15112C9.57998 2.15112 9.22998 2.50112 9.22998 2.93237V4.49487C9.22998 4.92613 9.57998 5.27613 10.0112 5.27613C10.4425 5.27613 10.7925 4.92613 10.7925 4.49487V2.93237C10.7925 2.50112 10.4425 2.15112 10.0112 2.15112ZM5.03076 4.20191C4.83076 4.20191 4.64639 4.29331 4.49405 4.44644C4.18858 4.75113 4.18858 5.24018 4.49405 5.54487L5.54327 6.61909C5.84873 6.92378 6.36201 6.92456 6.66669 6.61909C6.97138 6.31362 6.97216 5.80035 6.66669 5.49566L5.59248 4.44644C5.43935 4.29331 5.23076 4.20191 5.03076 4.20191ZM14.9675 4.22613C14.7675 4.22613 14.5831 4.29331 14.43 4.44644L13.3558 5.49566C13.0511 5.80113 13.0511 6.31362 13.3558 6.61909C13.6612 6.92378 14.1737 6.92378 14.4792 6.61909L15.5284 5.54487C15.8339 5.2394 15.8339 4.75113 15.5284 4.44644C15.3761 4.29331 15.1675 4.22613 14.9675 4.22613ZM10.0112 6.05738C7.8542 6.05738 6.10498 7.8066 6.10498 9.96363C6.10498 12.1207 7.8542 13.8699 10.0112 13.8699C12.1683 13.8699 13.9175 12.1207 13.9175 9.96363C13.9175 7.8066 12.1683 6.05738 10.0112 6.05738ZM2.97998 9.18238C2.54873 9.18238 2.19873 9.53238 2.19873 9.96363C2.19873 10.3949 2.54873 10.7449 2.97998 10.7449H4.54248C4.97373 10.7449 5.32373 10.3949 5.32373 9.96363C5.32373 9.53238 4.97373 9.18238 4.54248 9.18238H2.97998ZM15.48 9.18238C15.0487 9.18238 14.6987 9.53238 14.6987 9.96363C14.6987 10.3949 15.0487 10.7449 15.48 10.7449H17.0425C17.4737 10.7449 17.8237 10.3949 17.8237 9.96363C17.8237 9.53238 17.4737 9.18238 17.0425 9.18238H15.48ZM6.10498 13.0886C5.90498 13.0879 5.69639 13.1558 5.54327 13.3082L4.46905 14.3824C4.16358 14.6871 4.16514 15.1753 4.46905 15.4808C4.77373 15.7871 5.28623 15.7855 5.59248 15.4808L6.66669 14.4316C6.97216 14.1269 6.9706 13.6144 6.66669 13.3082C6.51435 13.1558 6.30498 13.0894 6.10498 13.0886ZM13.9175 13.0886C13.7175 13.0886 13.5081 13.1558 13.3558 13.3082C13.0511 13.6136 13.0503 14.1269 13.3558 14.4316L14.455 15.5058C14.7597 15.8105 15.2487 15.8113 15.5534 15.5058C15.8581 15.2003 15.8589 14.6871 15.5534 14.3824L14.4792 13.3082C14.3261 13.1558 14.1175 13.0886 13.9175 13.0886ZM10.0112 14.6511C9.57998 14.6511 9.22998 15.0011 9.22998 15.4324V16.9949C9.22998 17.4261 9.57998 17.7761 10.0112 17.7761C10.4425 17.7761 10.7925 17.4261 10.7925 16.9949V15.4324C10.7925 15.0011 10.4425 14.6511 10.0112 14.6511Z" fill="white"/>
</svg>
